<?xml version="1.0" encoding="UTF-8"?><svg id="Capa_1" xmlns="http://www.w3.org/2000/svg" viewBox="0 0 1000.04 142.06"><defs><style>.cls-1{fill:#f80707;}.cls-2{fill:#f80909;}.cls-3{fill:#fff;}</style></defs><path class="cls-1" d="M0,58.61v-1.95c1.92-4.51,8.19-3.91,7.85,1.38-.28,4.26-6.4,4.58-7.85.57Z"/><path class="cls-1" d="M71.89,0c4.59,1.13,4.01,7.82-.58,7.86-4.88.03-5.62-6.58-.98-7.86h1.56Z"/><path class="cls-1" d="M0,85.18v-1.56c1.61-4.5,8.01-4.17,7.85.98-.15,4.83-6.36,4.9-7.85.58Z"/><path class="cls-1" d="M0,71.89v-1.95c1.42-3.9,7.58-3.65,7.85.57.33,5.35-5.9,5.92-7.85,1.38Z"/><path class="cls-2" d="M58.61,0c3.01,1.29,4.35,4.51,1.57,6.85-4.69,3.95-9.28-3.92-3.92-6.85h2.34Z"/><path class="cls-1" d="M85.57,0c5.96,2.31,1.34,10.95-3.53,6.85-2.78-2.34-1.43-5.56,1.57-6.85h1.95Z"/><path class="cls-3" d="M413.4,55.87l8.6,19.54,8.98-19.54h19.93v3.91c-2.71.17-5.54-1.04-5.89,2.51-.43,4.46-.34,13.09,0,17.62.33,4.24,2.4,2.64,5.88,2.92v3.91h-20.71c.11-.66-.15-3.76,0-3.91.19-.19,5.08.4,5.08-.97v-20.51l-11.9,25.43c-1.46-.31-5.79.49-6.67-.41l-11.51-25.02v20.12c0,2.04,4.85,1.13,5.08,1.37.15.15-.11,3.25,0,3.91h-16.8v-3.91c1.42-.21,4.87.72,5.39-1.05l-.11-21.22c-.73-1.24-4.35-.65-5.67-.77v-3.91h20.32Z"/><path class="cls-3" d="M173.88,75.02c.91.19,3.72-.29,4.25.05.19.13.53,2.18.88,2.83,3.22,5.84,18.29,7.31,23.53,4.1,1.51-.93,2.44-2.77,1.38-4.4-1.38-2.12-13.12-2.58-16.12-3.02-5.83-.86-14.6-2.02-15.1-9.53-.79-11.83,19.13-12.23,26.96-10.15,1.17.31,5.26,2.16,5.69,2.15,1.33-.01.78-1.74.97-1.94s3.56.11,4.28-.02v10.94c-1-.17-3.17.33-3.92-.18-.26-.18-1.1-2.67-2.19-3.67-4.21-3.82-16.6-4.81-21.44-2.03-2.5,1.44-2.5,3.8.38,4.73,8.13,2.62,29.56-.5,29.56,12.68,0,11.95-20.27,11.54-28.25,9.46-1.14-.3-4.64-1.85-5.21-1.85-1.45,0-.77,2.15-.96,2.35-.16.17-3.94-.13-4.69,0v-12.5Z"/><path class="cls-3" d="M512.64,75.02l4.67.02c.29,7.57,12.41,9.08,18.18,8.57,1.63-.14,7.04-1.34,7.55-3,1.51-4.94-5.44-5.05-8.76-5.54-6.46-.95-21.46-.47-22.42-9.23-1.47-13.41,19.83-12.99,28.44-10.47,1.29.38,3.04,1.5,4.19,1.68,1.2.18.29-1.66.58-1.96.16-.17,3.95.13,4.69,0v10.94c-.8-.16-3.92.24-4.25-.05-.1-.09-.45-1.73-.89-2.43-3.33-5.28-17.83-6.35-22.74-3.33-2.09,1.29-2.51,3.53-.09,4.66,7.11,2.32,27.74.65,29.75,10.11,1.34,6.34-2.25,9.84-7.83,11.76-8.61,2.95-17.48,1.51-25.8-1.58-.51.03,0,2.15-.2,2.35-.18.18-4.3-.14-5.08,0v-12.5Z"/><path class="cls-3" d="M307.12,74.24v-13.09c0-2.12-4.86-1.19-6.25-1.37v-3.91h18.37v3.91c-1.68.28-5.42-.93-5.85,1.38l.38,25.58h-6.45c-7.93-6.41-14.94-14.11-22.85-20.52-.48-.39-.99-.76-1.57-.97v15.43c0,3.2,4.06,1.92,6.25,2.15v3.91h-17.98v-3.91c.42-.43,5.75.99,5.77-1.44-.24-5.99.65-12.8.11-18.7-.38-4.17-3.06-2.69-6.27-2.91v-3.91h15.83c6.73,6.23,13.49,12.5,20.51,18.36Z"/><path class="cls-3" d="M238.26,54.03c10.37-1.17,25.02,1.55,27.72,13.48,6.16,27.24-49.72,29-45.9.77,1.13-8.31,10.6-13.4,18.18-14.25ZM240.21,58.71c-7.68,1.04-11.7,8.73-9.87,15.92,3.39,13.29,24.66,11.96,25.98-1.76.97-10.02-6.64-15.44-16.11-14.16Z"/><path class="cls-3" d="M479.04,55.87v3.91c-1.19.24-5.4-.61-5.81.64.43,5.82-.79,13.01-.02,18.67.86,6.3,9.25,6.34,14.03,5.12,3.58-.91,5.38-2.5,5.82-6.3.33-2.87.5-14.15-.05-16.67s-3.92-1.13-5.78-1.45v-3.91h18.37v3.91c-1.19.24-5.4-.61-5.81.64-.97,6.57,2.03,18.57-2.41,23.77-4.45,5.22-16.91,5.06-23.13,4-16.28-2.78-10.56-15.07-11.71-27.36-.53-1.81-4.32-.82-5.78-1.05v-3.91h22.27Z"/><path class="cls-3" d="M630.25,67.21c-.91-.19-3.7.3-4.24-.05-.12-.08-.67-2.03-1.06-2.66-6.71-11.08-31.28-6.75-26.41,10.39,2.93,10.31,17.81,11.6,24.63,4.98.94-.91,2.48-4.08,2.77-4.26.94-.57,3.49.01,4.69-.19-3.73,19.9-41.35,16.31-42.61-2.92-1.21-18.57,24.66-22.88,37.32-15.06.8-.33.46-1.79.61-1.94.2-.2,3.56.11,4.28-.02v11.72Z"/><path class="cls-3" d="M344.24,55.87c-.11.66.15,3.76,0,3.91-.12.12-2.34-.08-2.93,0l-.14.92c1.19.97,6.66,8.62,7.52,8.44.61-.13,6.07-7.51,7.21-8.44l-.14-.92c-.64-.08-3.2.13-3.32,0-.15-.15.11-3.25,0-3.91h17.97v3.91c-2.04.19-4.44-.54-6.23.6-3.41,3.83-7.16,7.52-10.38,11.5-2.63,3.25-2.93,3.96-2.55,8.42.34,3.94,3.25,2.15,6.27,2.52v3.91h-21.49v-3.91c7.21,1.01,6.07-2.08,5.69-7.83l-12.13-14.05c-2.04-1.7-4.4-1.08-6.85-1.16v-3.91h21.49Z"/><path class="cls-3" d="M581.41,55.87v3.91c-1.47.24-5.25-.76-5.78,1.05.26,6.28-.61,13.27-.09,19.47.33,3.93,3.25,2.15,6.27,2.52v3.91h-21.88v-3.91c1.39-.12,5.27.54,5.8-1.04-.36-6.34.7-13.66.09-19.89-.34-3.44-3.27-1.77-5.89-2.12v-3.91h21.49Z"/><rect class="cls-3" x="660.73" y="53.53" width="3.52" height="35.17"/><path class="cls-2" d="M110.07,107.54c6.14-1.4,6.84,6.75,2.17,7.65-5,.96-6.65-6.62-2.17-7.65Z"/><path class="cls-2" d="M100.69,87.4c-4.12,3.64-9.31-2.92-5.16-6.14,3.92-3.03,8.89,2.84,5.16,6.14Z"/><path class="cls-2" d="M110.48,80.57c6.11-1.17,6.59,8.58.33,7.71-4.34-.6-4.42-6.93-.33-7.71Z"/><path class="cls-2" d="M140.93,87.4c-4.12,3.64-9.31-2.92-5.16-6.14,3.92-3.03,8.89,2.84,5.16,6.14Z"/><path class="cls-2" d="M33.87,113.97c-3.29,3.73-9.17-1.24-6.14-5.16,3.22-4.15,9.78,1.04,6.14,5.16Z"/><path class="cls-2" d="M74.12,113.97c-3.29,3.73-9.17-1.24-6.14-5.16,3.22-4.15,9.78,1.04,6.14,5.16Z"/><path class="cls-1" d="M29.99,120.82c6.11-1.17,6.59,8.58.33,7.71-4.34-.6-4.42-6.93-.33-7.71Z"/><path class="cls-1" d="M70.23,120.82c6.11-1.17,6.59,8.58.33,7.71-4.34-.6-4.42-6.93-.33-7.71Z"/><path class="cls-2" d="M110.48,120.82c6.11-1.17,6.59,8.58.33,7.71-4.34-.6-4.42-6.93-.33-7.71Z"/><path class="cls-2" d="M100.69,47.16c-4.12,3.64-9.31-2.92-5.16-6.14,3.92-3.03,8.89,2.84,5.16,6.14Z"/><path class="cls-2" d="M29.99,80.57c6.11-1.17,6.59,8.58.33,7.71-4.34-.6-4.42-6.93-.33-7.71Z"/><path class="cls-2" d="M60.44,87.4c-4.12,3.64-9.31-2.92-5.16-6.14,3.92-3.03,8.89,2.84,5.16,6.14Z"/><path class="cls-2" d="M70.23,80.57c6.11-1.17,6.59,8.58.33,7.71-4.34-.6-4.42-6.93-.33-7.71Z"/><path class="cls-2" d="M110.48,40.33c6.11-1.17,6.59,8.58.33,7.71-4.34-.6-4.42-6.93-.33-7.71Z"/><path class="cls-2" d="M16.3,40.33c4.17-.94,7.29,4.24,3.43,6.95-5.54,3.89-8.65-5.78-3.43-6.95Z"/><path class="cls-1" d="M56.54,107.54c6.11-1.4,6.8,6.93,1.77,7.65-5.18.75-5.91-6.71-1.77-7.65Z"/><path class="cls-2" d="M29.99,40.33c6.32-1.21,6.45,8.97,0,7.64-4-.82-3.98-6.88,0-7.64Z"/><path class="cls-1" d="M56.54,67.29c6.11-1.4,6.8,6.93,1.77,7.65-5.18.75-5.91-6.71-1.77-7.65Z"/><path class="cls-2" d="M100.69,127.65c-4.11,3.64-9.31-2.92-5.16-6.14s8.77,2.94,5.16,6.14Z"/><path class="cls-2" d="M56.54,40.33c4.17-.94,7.29,4.24,3.43,6.95-5.54,3.89-8.65-5.78-3.43-6.95Z"/><path class="cls-2" d="M70.23,40.33c6.32-1.21,6.45,8.97,0,7.64-4-.82-3.98-6.88,0-7.64Z"/><path class="cls-1" d="M16.3,27.04c6.11-1.4,6.8,6.93,1.77,7.65s-5.91-6.71-1.77-7.65Z"/><path class="cls-1" d="M16.3,107.54c6.11-1.4,6.8,6.93,1.77,7.65-5.18.75-5.91-6.71-1.77-7.65Z"/><path class="cls-1" d="M16.3,67.29c6.11-1.4,6.8,6.93,1.77,7.65-5.18.75-5.91-6.71-1.77-7.65Z"/><path class="cls-2" d="M60.44,127.65c-4.11,3.64-9.31-2.92-5.16-6.14s8.77,2.94,5.16,6.14Z"/><path class="cls-2" d="M114.36,73.73c-3.28,3.54-9.22-1.18-6.14-5.16,3.28-4.23,9.79,1.22,6.14,5.16Z"/><path class="cls-1" d="M137.03,67.29c6.11-1.4,6.8,6.93,1.77,7.65s-5.97-6.69-1.77-7.65Z"/><path class="cls-1" d="M96.79,67.29c6.11-1.4,6.8,6.93,1.77,7.65s-5.97-6.69-1.77-7.65Z"/><path class="cls-1" d="M56.54,27.04c6.11-1.4,6.8,6.93,1.77,7.65-5.04.73-5.97-6.69-1.77-7.65Z"/><path class="cls-1" d="M96.79,27.04c6.11-1.4,6.8,6.93,1.77,7.65-5.04.73-5.97-6.69-1.77-7.65Z"/><path class="cls-1" d="M96.79,107.54c6.11-1.4,6.8,6.93,1.77,7.65s-5.97-6.69-1.77-7.65Z"/><path class="cls-1" d="M70.63,134.09c4.68-.57,6.14,6.66,1.77,7.66-6.35,1.45-6.77-7.05-1.77-7.66Z"/><path class="cls-2" d="M30.39,13.36c4.68-.57,6.14,6.66,1.77,7.66-6.35,1.45-6.77-7.05-1.77-7.66Z"/><path class="cls-1" d="M57.35,13.36c4.84-.55,5.79,6.74,1.77,7.66-6.16,1.41-7.1-7.06-1.77-7.66Z"/><path class="cls-1" d="M70.63,13.36c4.68-.57,6.14,6.66,1.77,7.66-6.35,1.45-6.77-7.05-1.77-7.66Z"/><path class="cls-1" d="M97.59,13.36c4.84-.55,5.79,6.74,1.77,7.66-6.16,1.41-7.1-7.06-1.77-7.66Z"/><path class="cls-2" d="M29.58,27.04c4.89-1.12,7.13,4.48,3.44,6.95-5.14,3.44-8.77-5.73-3.44-6.95Z"/><path class="cls-2" d="M69.83,27.04c4.89-1.12,7.13,4.48,3.44,6.95-5.14,3.44-8.77-5.73-3.44-6.95Z"/><path class="cls-2" d="M110.07,27.04c4.89-1.12,7.13,4.48,3.44,6.95-5.14,3.44-8.77-5.73-3.44-6.95Z"/><path class="cls-1" d="M43.26,40.33c6.23-1.42,6.55,8.64.34,7.72-4.08-.6-4.33-6.81-.34-7.72Z"/><path class="cls-1" d="M83.5,40.33c6.23-1.42,6.55,8.64.34,7.72-4.08-.6-4.33-6.81-.34-7.72Z"/><path class="cls-1" d="M123.75,40.33c6.23-1.42,6.55,8.64.34,7.72-4.08-.6-4.33-6.81-.34-7.72Z"/><path class="cls-1" d="M30.39,53.6c4.68-.57,6.14,6.66,1.77,7.66-6.35,1.45-6.77-7.05-1.77-7.66Z"/><path class="cls-1" d="M57.35,53.6c4.84-.55,5.79,6.74,1.77,7.66-6.16,1.41-7.1-7.06-1.77-7.66Z"/><path class="cls-2" d="M70.63,53.6c4.68-.57,6.14,6.66,1.77,7.66-6.35,1.45-6.77-7.05-1.77-7.66Z"/><path class="cls-1" d="M87.39,60.43c-3.4,3.4-9.32-1.51-5.74-5.54s9.37,1.91,5.74,5.54Z"/><path class="cls-1" d="M127.63,60.43c-3.4,3.4-9.32-1.51-5.74-5.54s9.37,1.91,5.74,5.54Z"/><path class="cls-2" d="M16.3,80.57c5.5-1.24,6.91,6.58,2.18,7.65-5.56,1.26-6.41-6.7-2.18-7.65Z"/><path class="cls-1" d="M110.88,13.36c4.68-.57,6.14,6.66,1.77,7.66-6.35,1.45-6.77-7.05-1.77-7.66Z"/><path class="cls-1" d="M43.26,80.57c6.23-1.42,6.55,8.64.34,7.72-4.08-.6-4.33-6.81-.34-7.72Z"/><path class="cls-1" d="M83.5,80.57c6.23-1.42,6.55,8.64.34,7.72-4.08-.6-4.33-6.81-.34-7.72Z"/><path class="cls-2" d="M29.58,67.29c4.89-1.12,7.13,4.48,3.44,6.95-5.14,3.44-8.77-5.73-3.44-6.95Z"/><path class="cls-1" d="M123.75,80.57c6.23-1.42,6.55,8.64.34,7.72-4.08-.6-4.33-6.81-.34-7.72Z"/><path class="cls-1" d="M110.88,53.6c4.68-.57,6.14,6.66,1.77,7.66-6.35,1.45-6.77-7.05-1.77-7.66Z"/><path class="cls-1" d="M17.1,93.85c4.74-.5,5.86,6.72,1.76,7.66-6.29,1.44-7-7.1-1.76-7.66Z"/><path class="cls-1" d="M30.39,93.85c4.68-.57,6.14,6.66,1.77,7.66-6.35,1.45-6.77-7.05-1.77-7.66Z"/><path class="cls-1" d="M47.14,100.67c-3.4,3.4-9.32-1.51-5.74-5.54s9.37,1.91,5.74,5.54Z"/><path class="cls-1" d="M57.35,93.85c4.74-.5,5.86,6.72,1.76,7.66-6.29,1.44-7-7.1-1.76-7.66Z"/><path class="cls-1" d="M70.63,93.85c4.68-.57,6.14,6.66,1.77,7.66-6.35,1.45-6.77-7.05-1.77-7.66Z"/><path class="cls-1" d="M87.39,100.67c-3.4,3.4-9.32-1.51-5.74-5.54s9.37,1.91,5.74,5.54Z"/><path class="cls-1" d="M110.88,93.85c4.68-.57,6.14,6.66,1.77,7.66-6.35,1.45-6.77-7.05-1.77-7.66Z"/><path class="cls-1" d="M127.63,100.67c-3.4,3.4-9.32-1.51-5.74-5.54s9.37,1.91,5.74,5.54Z"/><path class="cls-2" d="M69.83,67.29c4.89-1.12,7.13,4.48,3.44,6.95-5.14,3.44-8.77-5.73-3.44-6.95Z"/><path class="cls-1" d="M97.59,53.6c4.84-.55,5.79,6.74,1.77,7.66-6.16,1.41-7.1-7.06-1.77-7.66Z"/><path class="cls-1" d="M137.84,53.6c4.84-.55,5.79,6.74,1.77,7.66-6.16,1.41-7.1-7.06-1.77-7.66Z"/><path class="cls-1" d="M43.26,120.82c6.23-1.42,6.55,8.64.34,7.72-4.08-.6-4.33-6.81-.34-7.72Z"/><path class="cls-1" d="M83.5,120.82c6.23-1.42,6.55,8.64.34,7.72-4.08-.6-4.33-6.81-.34-7.72Z"/><path class="cls-1" d="M57.35,134.09c4.74-.5,5.86,6.72,1.76,7.66-6.29,1.44-7-7.1-1.76-7.66Z"/><path class="cls-1" d="M83.13,67.3c6.02-1.55,7.11,6.7,2.15,7.64-4.75.91-6.42-6.54-2.15-7.64Z"/><path class="cls-1" d="M87.39,140.92c-3.44,3.44-9.32-1.61-5.74-5.54s9.39,1.89,5.74,5.54Z"/><path class="cls-1" d="M123.37,27.06c6.02-1.55,7.11,6.7,2.15,7.64s-6.42-6.54-2.15-7.64Z"/><path class="cls-1" d="M97.59,93.85c4.75-.5,5.86,6.73,1.76,7.66-6.19,1.41-7.07-7.1-1.76-7.66Z"/><path class="cls-1" d="M43.67,53.6c4.98-.82,5.91,6.55,2.17,7.67-6.23,1.86-7.24-6.83-2.17-7.67Z"/><path class="cls-1" d="M17.1,53.6c4.75-.5,5.86,6.73,1.76,7.66-6.19,1.41-7.07-7.1-1.76-7.66Z"/><path class="cls-1" d="M83.13,27.06c6.02-1.55,7.11,6.7,2.15,7.64s-6.42-6.54-2.15-7.64Z"/><path class="cls-1" d="M83.91,13.35c4.98-.82,5.91,6.55,2.17,7.67-6.23,1.86-7.24-6.83-2.17-7.67Z"/><path class="cls-1" d="M42.88,27.06c6.02-1.55,7.11,6.7,2.15,7.64s-6.42-6.54-2.15-7.64Z"/><path class="cls-1" d="M43.67,13.35c4.98-.82,5.91,6.55,2.17,7.67-6.23,1.86-7.24-6.83-2.17-7.67Z"/><path class="cls-1" d="M123.37,67.3c6.02-1.55,7.11,6.7,2.15,7.64-4.75.91-6.42-6.54-2.15-7.64Z"/><path class="cls-1" d="M42.88,67.3c6.02-1.55,7.11,6.7,2.15,7.64-4.75.91-6.42-6.54-2.15-7.64Z"/><path class="cls-1" d="M42.88,107.55c5.98-1.54,7.12,6.77,2.15,7.64s-6.28-6.58-2.15-7.64Z"/><path class="cls-1" d="M123.37,107.55c5.92-1.52,7.18,6.68,2.15,7.64-4.75.91-6.42-6.54-2.15-7.64Z"/><path class="cls-1" d="M83.13,107.55c5.92-1.52,7.18,6.68,2.15,7.64-4.75.91-6.42-6.54-2.15-7.64Z"/><path class="cls-3" d="M694.35,57.6h4.1v25.13h15.54v3.57h-19.64v-28.7Z"/><path class="cls-3" d="M737.52,79.12h-15.25l-3.16,7.17h-4.22l13-28.7h4.06l13.04,28.7h-4.31l-3.16-7.17ZM736.09,75.84l-6.19-14.06-6.19,14.06h12.38Z"/><path class="cls-3" d="M753.92,61.16h-9.84v-3.57h23.74v3.57h-9.84v25.13h-4.06v-25.13Z"/><path class="cls-3" d="M772.7,57.6h4.1v28.7h-4.1v-28.7Z"/><path class="cls-3" d="M810.5,57.6v28.7h-3.36l-17.22-21.4v21.4h-4.1v-28.7h3.36l17.22,21.4v-21.4h4.1Z"/><path class="cls-3" d="M828.99,73.34h11.03v3.4h-11.03v-3.4Z"/><path class="cls-3" d="M858.51,57.6h4.1v28.7h-4.1v-28.7Z"/><path class="cls-3" d="M896.31,78.55c0,4.92-3.73,7.75-10.99,7.75h-13.69v-28.7h12.87c6.6,0,10.29,2.79,10.29,7.42,0,3.12-1.6,5.29-3.85,6.4,3.24.9,5.37,3.32,5.37,7.13ZM875.73,60.92v9.18h8.41c4.18,0,6.56-1.56,6.56-4.59s-2.38-4.59-6.56-4.59h-8.41ZM892.17,78.22c0-3.32-2.46-4.8-7.01-4.8h-9.43v9.55h9.43c4.55,0,7.01-1.43,7.01-4.76Z"/><path class="cls-3" d="M923.9,82.73v3.57h-20.83v-28.7h20.25v3.57h-16.15v8.81h14.39v3.49h-14.39v9.27h16.73Z"/><path class="cls-3" d="M950.14,86.3l-6.19-8.81c-.57.04-1.19.08-1.8.08h-7.09v8.73h-4.1v-28.7h11.19c7.46,0,11.97,3.77,11.97,10,0,4.43-2.3,7.63-6.31,9.06l6.81,9.63h-4.47ZM950.02,67.6c0-4.1-2.75-6.44-8-6.44h-6.97v12.92h6.97c5.25,0,8-2.38,8-6.48Z"/><path class="cls-3" d="M961.17,57.6h4.1v28.7h-4.1v-28.7Z"/><path class="cls-3" d="M992.58,79.12h-15.25l-3.16,7.17h-4.22l13-28.7h4.06l13.04,28.7h-4.31l-3.16-7.17ZM991.14,75.84l-6.19-14.06-6.19,14.06h12.38Z"/></svg>