<?xml version="1.0" encoding="UTF-8"?>
<svg xmlns="http://www.w3.org/2000/svg" version="1.1" viewBox="0 0 1080 1080">
  <defs>
    <style>
      .cls-1 {
        stroke: #f2f2f2;
        stroke-miterlimit: 10;
        stroke-width: .5px;
      }

      .cls-1, .cls-2 {
        fill: #fff;
      }
    </style>
  </defs>
  <!-- Generator: Adobe Illustrator 28.7.1, SVG Export Plug-In . SVG Version: 1.2.0 Build 142)  -->
  <g>
    <g id="Capa_1">
      <g>
        <path class="cls-1" d="M763.3,540c-.1,206.6-109.8,311.4-223.3,311.4s-223.1-104.8-223.3-311.4c.1-206.6,109.8-311.4,223.3-311.4s223.1,104.8,223.3,311.4ZM714.5,540c0-202.6-93.3-305.3-174.5-305.3s-174.4,102.7-174.5,305.3c0,202.6,93.3,305.3,174.5,305.3s174.4-102.7,174.5-305.3Z"/>
        <path class="cls-2" d="M630.3,555s0,0,0,0c0,0,0,.2,0,.3,0,0,0-.2,0-.3ZM521,747.8c-7.6,33.2,18.8,66.3,18.8,66.3,5.4-3.6,22.4-17.5,29.6-24.5,21.5,24.3,24.9,33.4,26.7,48.4l3.5-1s.8-24.9-24.2-54.4c1.2-1.3,2.4-2.8,3.5-4.4,18.6,18.8,27.3,38.6,31.4,54.1l2.3-4.1s-1.7-27.3-28.3-58.9c15.2-26.3,13.2-37.6,8.9-50.2,6.9-2.2,11.2-20.5,12.9-27.5,4.8,4.4,5.4,29,3.2,37.5,0,0,20.5,19.4,23.9,69l2.3-2.9s1.6-37-12.4-58.9c16.2,12.8,25,44.6,25,44.6l2.5-3.6c-6.2-25.3-19.7-47.2-31.9-54.9,1.5-4.3,3.1-10.3,3.6-18.3.4-4.9,0-9-.5-12.5-.1-.9-.3-1.6-.5-2.3-.2-.8-.4-1.4-.6-2.1,4.2-4.3,7.4-10.4,8.5-14.3,17.3.6,30.9-12.7,37.9-24.4,0,0-.3.6-.2.3,30.5,9.7,52.4-8.1,52.4-8.1l2.4-4.2c-21.2,13.5-41.9,8.5-51.7,4.7,42,2.1,57.6-15.1,57.6-15.1l2.3-4.1c-14.4,10.6-28.6,15.5-63.6,12.3-3.9,6.9-7.9,11.7-11.4,15.2-5.2,4.6-12.4,8.5-20.7,6.6.6-6.9.9-19.6-10.9-29,11.6-2.5,30.4-13.3,37.3-25.3,1-1.8,1.5-3.7,1.5-3.7,0,0,15.9-3.8,15.1-4.4-12.4-10.3-29.9-13.9-48.3-11.6h-1c.9-2.3,4.7-13.1,6.4-27.8,33.8-5,56.7,3.6,56.7,3.6l3.3-.9s-19.2-10-59.5-7.7c.2-2.7.3-5.4.2-8.2,18-6.6,45.2-.3,45.2-.3l3-.8s-27.1-9.7-53.6-2.1c0,0,.9,4.2.8,11.7-1.5.1-3,.2-4.5.4,0,0,2.1,14.8-3.1,33.1-7.8,2.1-14.3,6.2-17.4,9.5-11.7,12.4-6.1,32.1,1.9,30.2-9.1,2.1-15.2,6.3-26.1,21.4-7.3,10.1-12.7,27.8-6.1,38.8-2.5,1.5-7.3,11.1-7.1,15.4-8,.8-22.5,7.2-29.9,14.7-10.3,10.5-15.7,27.2-17.3,34.5Z"/>
      </g>
      <path d="M948.3,583.9s0,0,0,0c0,0,0,.2,0,.3,0,0,0-.2,0-.3Z"/>
    </g>
  </g>
</svg>